<?xml version="1.0" encoding="iso-8859-1"?>
<!-- Generator: Adobe Illustrator 19.0.0, SVG Export Plug-In . SVG Version: 6.00 Build 0)  -->
<svg version="1.1" id="Capa_1" xmlns="http://www.w3.org/2000/svg" xmlns:xlink="http://www.w3.org/1999/xlink" x="0px" y="0px"
	 viewBox="0 0 512 512" style="enable-background:new 0 0 512 512;" xml:space="preserve">
<circle style="fill:#EC5353;" cx="256" cy="256" r="256"/>
<path style="fill:#D13135;" d="M507.078,306.138l-68.267-68.267l-15.348,9.76l-86.036-86.036L63.174,330.667L244.227,511.72
	c3.903,0.177,7.826,0.28,11.773,0.28C380.224,512,483.768,423.515,507.078,306.138z"/>
<path style="fill:#BCDEFA;" d="M374.933,212.764L374.933,212.764c-23.189-52.949-75.515-87.156-133.319-87.156h-5.471
	c-57.804,0-110.129,34.207-133.319,87.156l0,0h-6.766c-18.162,0-32.885,14.723-32.885,32.885v85.017h398.459v-36.13
	c0-45.161-36.611-81.772-81.772-81.772H374.933z"/>
<g>
	<path style="fill:#92CBF7;" d="M461.632,294.536c0-45.161-36.611-81.771-81.772-81.771h-4.927l0,0
		c-23.189-52.948-75.515-87.156-133.319-87.156H239.5v205.058h222.132L461.632,294.536L461.632,294.536z"/>
	<path style="fill:#92CBF7;" d="M63.174,288.702v41.965h398.459v-36.13c0-1.964-0.094-3.905-0.23-5.834L63.174,288.702
		L63.174,288.702z"/>
</g>
<path style="fill:#2789E1;" d="M461.632,294.536c0-1.964-0.094-3.905-0.23-5.834H239.5v41.965h222.132L461.632,294.536
	L461.632,294.536z"/>
<path style="fill:#FFFFFF;" d="M226.972,143.981c-40.788,0-77.711,24.138-94.074,61.5l-3.824,8.733h97.898L226.972,143.981
	L226.972,143.981z"/>
<path style="fill:#EDF0F2;" d="M355.03,208.721c-17.225-39.33-56.092-64.74-99.03-64.74l0,0v70.233h101.435L355.03,208.721z"/>
<circle style="fill:#595959;" cx="131.32" cy="324.59" r="45.38"/>
<circle style="fill:#969696;" cx="131.32" cy="324.59" r="20.648"/>
<circle style="fill:#303030;" cx="393.43" cy="324.59" r="45.38"/>
<circle style="fill:#828282;" cx="393.43" cy="324.59" r="20.648"/>
<path style="fill:#E5E5E5;" d="M446.537,247.228h-32.199c-5.799,0-10.5,4.701-10.5,10.5c0,5.799,4.701,10.5,10.5,10.5h42.944
	C454.714,260.669,451.074,253.61,446.537,247.228z"/>
<g>
</g>
<g>
</g>
<g>
</g>
<g>
</g>
<g>
</g>
<g>
</g>
<g>
</g>
<g>
</g>
<g>
</g>
<g>
</g>
<g>
</g>
<g>
</g>
<g>
</g>
<g>
</g>
<g>
</g>
</svg>
